<?xml version="1.0" encoding="UTF-8"?>
<svg version="1.1" xmlns="http://www.w3.org/2000/svg" width="512" height="512">
<path d="M0 0 C1.91268698 1.61445156 3.78034325 3.28298336 5.61322021 4.98750305 C6.13631578 5.47352 6.65941135 5.95953694 7.1983583 6.46028167 C12.57932785 11.48786823 17.80432857 16.67039134 23.00097656 21.88745117 C24.03700086 22.9237586 25.0732475 23.9598438 26.10969543 24.99572754 C28.88179937 27.76754841 31.65084253 30.54240775 34.41928196 33.31788802 C37.32821684 36.2331393 40.24004656 39.14549644 43.15155029 42.05818176 C48.64618328 47.55590391 54.13826562 53.05616657 59.62940097 58.55738193 C65.88874195 64.8279597 72.15097473 71.09564621 78.41343355 77.36310995 C91.27880769 90.23889369 104.14060597 103.11824389 117 116 C120.60456066 114.47443237 122.89556011 112.3443519 125.64117432 109.57914734 C126.56908279 108.64965271 127.49699127 107.72015808 128.45301819 106.76249695 C129.47429382 105.7293588 130.49548546 104.69613762 131.51660156 103.6628418 C132.59734051 102.57662626 133.67854433 101.49087308 134.76017761 100.4055481 C137.08799074 98.06802566 139.41270794 95.72748194 141.73514557 93.38461876 C145.41148923 89.67643723 149.09600246 85.97644686 152.78192139 82.27778625 C161.93860368 73.08702714 171.08601892 63.88705927 180.22845459 54.68212891 C187.32906488 47.5330016 194.43287235 40.38712529 201.54731536 33.25175983 C205.20777819 29.57980668 208.86119741 25.90103192 212.5094142 22.21691358 C214.78740192 19.91965232 217.0716999 17.62874571 219.35775185 15.33951187 C220.4116769 14.28158784 221.46303286 13.22109678 222.51151848 12.1577816 C231.58520434 2.96048561 239.70626707 -4.23332915 253.25 -4.375 C269.0268213 -4.11231052 277.09592165 4.92534986 287.75 15.4375 C288.49121094 16.14970703 289.23242188 16.86191406 289.99609375 17.59570312 C297.76798957 25.27690357 301.09907573 32.18419818 301.3125 43.125 C301.27946349 53.29168145 298.94815434 59.15527957 292.01249695 66.61322021 C291.52648 67.13631578 291.04046306 67.65941135 290.53971833 68.1983583 C285.51213177 73.57932785 280.32960866 78.80432857 275.11254883 84.00097656 C274.0762414 85.03700086 273.0401562 86.0732475 272.00427246 87.10969543 C269.23245159 89.88179937 266.45759225 92.65084253 263.68211198 95.41928196 C260.7668607 98.32821684 257.85450356 101.24004656 254.94181824 104.15155029 C249.44409609 109.64618328 243.94383343 115.13826562 238.44261807 120.62940097 C232.1720403 126.88874195 225.90435379 133.15097473 219.63689005 139.41343355 C206.76110631 152.27880769 193.88175611 165.14060597 181 178 C182.52556763 181.60456066 184.6556481 183.89556011 187.42085266 186.64117432 C188.35034729 187.56908279 189.27984192 188.49699127 190.23750305 189.45301819 C191.2706412 190.47429382 192.30386238 191.49548546 193.3371582 192.51660156 C194.42337374 193.59734051 195.50912692 194.67854433 196.5944519 195.76017761 C198.93197434 198.08799074 201.27251806 200.41270794 203.61538124 202.73514557 C207.32356277 206.41148923 211.02355314 210.09600246 214.72221375 213.78192139 C223.91297286 222.93860368 233.11294073 232.08601892 242.31787109 241.22845459 C249.4669984 248.32906488 256.61287471 255.43287235 263.74824017 262.54731536 C267.42019332 266.20777819 271.09896808 269.86119741 274.78308642 273.5094142 C277.08034768 275.78740192 279.37125429 278.0716999 281.66048813 280.35775185 C282.71841216 281.4116769 283.77890322 282.46303286 284.8422184 283.51151848 C294.03951439 292.58520434 301.23332915 300.70626707 301.375 314.25 C301.11231052 330.0268213 292.07465014 338.09592165 281.5625 348.75 C280.85029297 349.49121094 280.13808594 350.23242188 279.40429688 350.99609375 C271.72309643 358.76798957 264.81580182 362.09907573 253.875 362.3125 C243.70831855 362.27946349 237.84472043 359.94815434 230.38677979 353.01249695 C229.86368422 352.52648 229.34058865 352.04046306 228.8016417 351.53971833 C223.42067215 346.51213177 218.19567143 341.32960866 212.99902344 336.11254883 C211.96299914 335.0762414 210.9267525 334.0401562 209.89030457 333.00427246 C207.11820063 330.23245159 204.34915747 327.45759225 201.58071804 324.68211198 C198.67178316 321.7668607 195.75995344 318.85450356 192.84844971 315.94181824 C187.35381672 310.44409609 181.86173438 304.94383343 176.37059903 299.44261807 C170.11125805 293.1720403 163.84902527 286.90435379 157.58656645 280.63689005 C144.72119231 267.76110631 131.85939403 254.88175611 119 242 C115.39543934 243.52556763 113.10443989 245.6556481 110.35882568 248.42085266 C109.43091721 249.35034729 108.50300873 250.27984192 107.54698181 251.23750305 C106.52570618 252.2706412 105.50451454 253.30386238 104.48339844 254.3371582 C103.40265949 255.42337374 102.32145567 256.50912692 101.23982239 257.5944519 C98.91200926 259.93197434 96.58729206 262.27251806 94.26485443 264.61538124 C90.58851077 268.32356277 86.90399754 272.02355314 83.21807861 275.72221375 C74.06139632 284.91297286 64.91398108 294.11294073 55.77154541 303.31787109 C48.67093512 310.4669984 41.56712765 317.61287471 34.45268464 324.74824017 C30.79222181 328.42019332 27.13880259 332.09896808 23.4905858 335.78308642 C21.21259808 338.08034768 18.9283001 340.37125429 16.64224815 342.66048813 C15.5883231 343.71841216 14.53696714 344.77890322 13.48848152 345.8422184 C4.41479566 355.03951439 -3.70626707 362.23332915 -17.25 362.375 C-33.0268213 362.11231052 -41.09592165 353.07465014 -51.75 342.5625 C-52.49121094 341.85029297 -53.23242188 341.13808594 -53.99609375 340.40429688 C-61.76798957 332.72309643 -65.09907573 325.81580182 -65.3125 314.875 C-65.27946349 304.70831855 -62.94815434 298.84472043 -56.01249695 291.38677979 C-55.52648 290.86368422 -55.04046306 290.34058865 -54.53971833 289.8016417 C-49.51213177 284.42067215 -44.32960866 279.19567143 -39.11254883 273.99902344 C-38.0762414 272.96299914 -37.0401562 271.9267525 -36.00427246 270.89030457 C-33.23245159 268.11820063 -30.45759225 265.34915747 -27.68211198 262.58071804 C-24.7668607 259.67178316 -21.85450356 256.75995344 -18.94181824 253.84844971 C-13.44409609 248.35381672 -7.94383343 242.86173438 -2.44261807 237.37059903 C3.8279597 231.11125805 10.09564621 224.84902527 16.36310995 218.58656645 C29.23889369 205.72119231 42.11824389 192.85939403 55 180 C53.47443237 176.39543934 51.3443519 174.10443989 48.57914734 171.35882568 C47.64965271 170.43091721 46.72015808 169.50300873 45.76249695 168.54698181 C44.7293588 167.52570618 43.69613762 166.50451454 42.6628418 165.48339844 C41.57662626 164.40265949 40.49087308 163.32145567 39.4055481 162.23982239 C37.06802566 159.91200926 34.72748194 157.58729206 32.38461876 155.26485443 C28.67643723 151.58851077 24.97644686 147.90399754 21.27778625 144.21807861 C12.08702714 135.06139632 2.88705927 125.91398108 -6.31787109 116.77154541 C-13.4669984 109.67093512 -20.61287471 102.56712765 -27.74824017 95.45268464 C-31.42019332 91.79222181 -35.09896808 88.13880259 -38.78308642 84.4905858 C-41.08034768 82.21259808 -43.37125429 79.9283001 -45.66048813 77.64224815 C-46.71841216 76.5883231 -47.77890322 75.53696714 -48.8422184 74.48848152 C-58.03951439 65.41479566 -65.23332915 57.29373293 -65.375 43.75 C-65.11231052 27.9731787 -56.07465014 19.90407835 -45.5625 9.25 C-44.85029297 8.50878906 -44.13808594 7.76757812 -43.40429688 7.00390625 C-32.06369077 -4.47060346 -14.5258629 -8.94407141 0 0 Z " fill="#F34336" transform="translate(138,77)"/>
<path d="M0 0 C1.629864 1.43359108 3.21765761 2.91543978 4.77832031 4.42407227 C10.62772673 9.94239998 16.8333725 14.96814566 23.09277344 20.01147461 C123.37890234 101.24730978 123.37890234 101.24730978 130.83469009 159.15592766 C134.69368292 198.07596636 127.69217463 231.325445 103.15274429 261.66443062 C77.33863232 292.94215946 46.62463881 320.22784891 15.37304688 345.93530273 C14.84558475 346.37016086 14.31812263 346.80501898 13.7746768 347.25305462 C1.02025778 357.72928215 -7.94949314 363.39874355 -25 362 C-36.23037733 359.48932662 -43.85158146 350.35569982 -51.75 342.5625 C-52.49121094 341.85029297 -53.23242188 341.13808594 -53.99609375 340.40429688 C-61.76798957 332.72309643 -65.09907573 325.81580182 -65.3125 314.875 C-65.27946349 304.70831855 -62.94815434 298.84472043 -56.01249695 291.38677979 C-55.52648 290.86368422 -55.04046306 290.34058865 -54.53971833 289.8016417 C-49.51213177 284.42067215 -44.32960866 279.19567143 -39.11254883 273.99902344 C-38.0762414 272.96299914 -37.0401562 271.9267525 -36.00427246 270.89030457 C-33.23245159 268.11820063 -30.45759225 265.34915747 -27.68211198 262.58071804 C-24.7668607 259.67178316 -21.85450356 256.75995344 -18.94181824 253.84844971 C-13.44409609 248.35381672 -7.94383343 242.86173438 -2.44261807 237.37059903 C3.8279597 231.11125805 10.09564621 224.84902527 16.36310995 218.58656645 C29.23889369 205.72119231 42.11824389 192.85939403 55 180 C53.47443237 176.39543934 51.3443519 174.10443989 48.57914734 171.35882568 C47.64965271 170.43091721 46.72015808 169.50300873 45.76249695 168.54698181 C44.7293588 167.52570618 43.69613762 166.50451454 42.6628418 165.48339844 C41.57662626 164.40265949 40.49087308 163.32145567 39.4055481 162.23982239 C37.06802566 159.91200926 34.72748194 157.58729206 32.38461876 155.26485443 C28.67643723 151.58851077 24.97644686 147.90399754 21.27778625 144.21807861 C12.08702714 135.06139632 2.88705927 125.91398108 -6.31787109 116.77154541 C-13.4669984 109.67093512 -20.61287471 102.56712765 -27.74824017 95.45268464 C-31.42019332 91.79222181 -35.09896808 88.13880259 -38.78308642 84.4905858 C-41.08034768 82.21259808 -43.37125429 79.9283001 -45.66048813 77.64224815 C-46.71841216 76.5883231 -47.77890322 75.53696714 -48.8422184 74.48848152 C-58.03951439 65.41479566 -65.23332915 57.29373293 -65.375 43.75 C-65.11231052 27.9731787 -56.07465014 19.90407835 -45.5625 9.25 C-44.85029297 8.50878906 -44.13808594 7.76757812 -43.40429688 7.00390625 C-32.05640751 -4.47797272 -14.53632702 -8.93296313 0 0 Z " fill="#D43A2F" transform="translate(138,77)"/>
</svg>
